<svg xmlns="http://www.w3.org/2000/svg" xmlns:xlink="http://www.w3.org/1999/xlink" height="60" version="1.1" width="60" style=""><rect id="backgroundrect" width="100%" height="100%" x="0" y="0" fill="none" stroke="none"/><title/><desc/><defs/><g class="currentLayer" style=""><title>Layer 1</title><g fill="none" fill-rule="evenodd" id="Page-1" stroke="#ffffff" stroke-linejoin="round" stroke-width="1" class="selected" stroke-opacity="1"><g id="Linkedin" stroke="#ffffff" stroke-width="2" stroke-opacity="1"><path d="M49.529328141783814,34.788829702786046 L49.529328141783814,48.73818176401565 L40.55108416978143,48.73818176401565 L40.55108416978143,35.7537130360873 C40.55108416978143,32.35612101542595 39.14794882201569,30.039125437914066 36.060139930081846,30.039125437914066 C33.696676883260835,30.039125437914066 32.38100971301815,31.603530237987954 31.77237697775351,33.108711792863936 C31.540950758057107,33.65356564868466 31.57830695887423,34.406156426122664 31.57830695887423,35.162391710957436 L31.57830695887423,48.73818176401565 L22.682975530148912,48.73818176401565 C22.682975530148912,48.73818176401565 22.798688639997128,25.74134009024457 22.682975530148912,23.650303971333926 L31.57830695887423,23.650303971333926 L31.57830695887423,27.588194213570002 C32.104027150861796,25.866164468584774 34.947654047210435,23.41067760999471 39.48051012197314,23.41067760999471 C45.10762954262331,23.41067760999471 49.529328141783814,27.016006552273318 49.529328141783814,34.788829702786046 L49.529328141783814,34.788829702786046 z" id="Stroke-18" stroke="#ffffff" stroke-opacity="1"/><polygon id="Stroke-19" points="9.934489250183105,48.73799800872803 17.850357055664062,48.73799800872803 17.850357055664062,23.651034355163574 9.934489250183105,23.651034355163574 " stroke="#ffffff" stroke-opacity="1"/><path d="M18.351934052483667,16.28357005750899 C18.351934052483667,18.486674778871052 16.66817163516477,20.23330494878465 13.971236161537107,20.23330494878465 L13.916568550585186,20.23330494878465 C11.31621252297256,20.23330494878465 9.632450105653664,18.494874920513837 9.632450105653664,16.28812569175498 C9.632450105653664,14.038553501083797 11.366324499678482,12.338390800479324 14.02134813824302,12.338390800479324 C16.66817163516477,12.338390800479324 18.297266441531754,14.034908993687 18.351934052483667,16.28357005750899 L18.351934052483667,16.28357005750899 z" id="Stroke-20" stroke="#ffffff" stroke-opacity="1"/><path d="M52.26270868937943,56.93814118143264 L6.706366229452563,56.93814118143264 C4.6936870195729945,56.93814118143264 3.0618588326584124,55.30631299451807 3.0618588326584124,53.2936337846385 L3.0618588326584124,7.737291324711631 C3.0618588326584124,5.724612114832061 4.6936870195729945,4.0927839279174805 6.706366229452563,4.0927839279174805 L52.26270868937943,4.0927839279174805 C54.275387899259,4.0927839279174805 55.907216086173584,5.724612114832061 55.907216086173584,7.737291324711631 L55.907216086173584,53.2936337846385 C55.907216086173584,55.30631299451807 54.275387899259,56.93814118143264 52.26270868937943,56.93814118143264 L52.26270868937943,56.93814118143264 z" id="Stroke-103" stroke="#ffffff" stroke-opacity="1"/></g></g></g></svg>